<?xml version="1.0" encoding="utf-8"?>
<!-- Generator: Adobe Illustrator 21.0.0, SVG Export Plug-In . SVG Version: 6.00 Build 0)  -->
<svg version="1.1" id="Layer_1" xmlns="http://www.w3.org/2000/svg" xmlns:xlink="http://www.w3.org/1999/xlink" x="0px" y="0px"
	 viewBox="0 0 100 100" style="enable-background:new 0 0 100 100;" xml:space="preserve">
<g transform="translate(879 984)">
	<path d="M-781.5-934c0.2-26.1-20.9-47.3-46.9-47.5c-0.2,0-0.4,0-0.6,0c-26.1-0.2-47.3,20.9-47.5,46.9c0,0.2,0,0.4,0,0.6
		c-0.2,26.1,20.9,47.3,46.9,47.5c0.2,0,0.4,0,0.6,0c26.1,0.2,47.3-20.9,47.5-46.9C-781.5-933.6-781.5-933.8-781.5-934z M-872.2-934
		c0-23.8,19.3-43.2,43.2-43.2c23.8,0,43.2,19.3,43.2,43.2s-19.3,43.2-43.2,43.2C-852.8-890.9-872.1-910.2-872.2-934z"/>
	<path d="M-827.4-906.5V-934h9.2l1.6-9.2h-10.8v-4.3c0-2.2,0.5-4.9,4.3-4.9h7v-9.2h-9.7c-8.1,0-10.3,5.4-10.3,13v5.4h-5.4v9.2h5.4
		v27.5H-827.4z"/>
</g>
</svg>
