<?xml version="1.0" encoding="utf-8"?>
<!-- Generator: Adobe Illustrator 21.0.0, SVG Export Plug-In . SVG Version: 6.00 Build 0)  -->
<svg version="1.1" id="Layer_1" xmlns="http://www.w3.org/2000/svg" xmlns:xlink="http://www.w3.org/1999/xlink" x="0px" y="0px"
	 viewBox="0 0 100 100" style="enable-background:new 0 0 100 100;" xml:space="preserve">
<g transform="translate(844 984)">
	<path d="M-794-981.5c-26.2,0-47.5,21.3-47.5,47.5s21.3,47.5,47.5,47.5s47.5-21.3,47.5-47.5l0,0C-746.5-960.2-767.8-981.5-794-981.5
		z M-794-893.9c-22.1,0-40.1-17.9-40.1-40.1c0.1-11.3,4.9-22.1,13.3-29.8c7.3-6.7,16.9-10.4,26.8-10.3c22.1,0,40.1,17.9,40.1,40.1
		C-753.9-911.9-771.9-893.9-794-893.9z"/>
	<path d="M-817.7-910.3h8.9v-35.6h-8.9V-910.3z M-782.1-945.9c-4.6,0.2-8.9,2.4-11.9,5.9v-5.9h-8.9v35.6h8.9v-20.8
		c0.8-4.1,4.8-6.8,8.9-5.9c0,0,0,0,0,0c3.8,0.3,5.8,5.2,5.9,5.9v20.8l8.9,0v-24.7c-0.1-6.1-5.1-11.1-11.2-11
		C-781.7-945.9-781.9-945.9-782.1-945.9z M-813.3-957.8c-2.5,0-4.5,2-4.5,4.5c0,2.5,2,4.5,4.5,4.5s4.5-2,4.5-4.5v0
		C-808.8-955.8-810.8-957.8-813.3-957.8z"/>
</g>
</svg>
