<?xml version="1.0" encoding="utf-8"?>
<!-- Generator: Adobe Illustrator 21.0.0, SVG Export Plug-In . SVG Version: 6.00 Build 0)  -->
<svg version="1.1" id="Layer_1" xmlns="http://www.w3.org/2000/svg" xmlns:xlink="http://www.w3.org/1999/xlink" x="0px" y="0px"
	 viewBox="0 0 100 100" style="enable-background:new 0 0 100 100;" xml:space="preserve">
<g transform="translate(907 823)">
	<g transform="translate(-13 -98)">
		<path d="M-881.7-712.7h75.4c5.4,0,9.8,4.4,9.8,9.8l0,0c0,5.4-4.4,9.8-9.8,9.8h-75.4c-5.4,0-9.8-4.4-9.8-9.8l0,0
			C-891.5-708.3-887.1-712.7-881.7-712.7z"/>
	</g>
	<g transform="translate(-13 -88)">
		<path d="M-881.7-694.8h75.4c5.4,0,9.8,4.4,9.8,9.8l0,0c0,5.4-4.4,9.8-9.8,9.8h-75.4c-5.4,0-9.8-4.4-9.8-9.8l0,0
			C-891.5-690.4-887.1-694.8-881.7-694.8z"/>
	</g>
	<g transform="translate(-13 -78)">
		<path d="M-881.7-676.8h75.4c5.4,0,9.8,4.4,9.8,9.8l0,0c0,5.4-4.4,9.8-9.8,9.8h-75.4c-5.4,0-9.8-4.4-9.8-9.8l0,0
			C-891.5-672.5-887.1-676.8-881.7-676.8z"/>
	</g>
</g>
</svg>
