<?xml version="1.0" encoding="utf-8"?>
<!-- Generator: Adobe Illustrator 21.0.0, SVG Export Plug-In . SVG Version: 6.00 Build 0)  -->
<svg version="1.1" id="Layer_1" xmlns="http://www.w3.org/2000/svg" xmlns:xlink="http://www.w3.org/1999/xlink" x="0px" y="0px"
	 viewBox="0 0 100 100" style="enable-background:new 0 0 100 100;" xml:space="preserve">
<g transform="translate(808 984)">
	<path d="M-723.6-933.6h-4.7c0-15.8-12.9-28.6-28.7-28.6v-4.7C-738.5-966.9-723.7-952-723.6-933.6L-723.6-933.6z M-757.3-958.6v4.7
		c11.2,0,20.3,9,20.3,20.2c0,0,0,0,0,0.1h4.7c0.1-13.7-11-24.9-24.7-25C-757-958.6-757.2-958.6-757.3-958.6z M-758-981.5
		c-26.2,0-47.5,21.3-47.5,47.5s21.3,47.5,47.5,47.5c1.6,0,2.9-1.3,2.9-2.9s-1.3-2.9-2.9-2.9c-23,0-41.7-18.7-41.7-41.7
		s18.7-41.7,41.7-41.7s41.7,18.7,41.7,41.7c0.1,9.3-4.5,18.1-12.3,23.2c-2.7,1.5-5.7,2.2-8.7,2.2c1.8-1.2,3.4-2.6,4.7-4.3
		c0.4-0.4,0.4-0.7,0.7-1.1c0.9-2.3,1.4-4.8,1.5-7.3c0.7-2.9-13.4-9.1-14.9-5.1c-0.4,2.5-1.1,4.9-2.2,7.3c-0.7,1.1-2.9,0.7-4-0.4
		c-3.3-3.6-6.9-7.6-9.8-10.9c0-0.2-0.2-0.4-0.4-0.4l0,0l-0.4-0.4c-3.3-3.3-7.3-6.9-10.2-10.2c-1.1-1.1-1.4-3.3-0.4-4
		c1.1-1.1,5.8-1.5,7.3-2.2c4-1.1-2.2-15.6-5.4-14.9c-2.4,0.9-4.8,1.6-7.3,2.2c-0.4,0.4-0.7,0.7-1.1,0.7c-8,5.1-9.1,17.8-1.1,27.2
		c2.9,3.6,6.2,6.9,9.4,10.5l0,0c0.2,0,0.4,0.2,0.4,0.4l0,0c0.2,0,0.4,0.2,0.4,0.4l0,0l0,0c4.1,4.6,8.7,8.7,13.8,12.3
		c13.8,9.1,24.3,6.5,30.5,3.3c10.5-5.8,15.2-18.5,15.2-28.3C-710.6-959.9-731.7-981.2-758-981.5z"/>
</g>
</svg>
