<?xml version="1.0" encoding="utf-8"?>
<!-- Generator: Adobe Illustrator 21.0.0, SVG Export Plug-In . SVG Version: 6.00 Build 0)  -->
<svg version="1.1" id="Layer_1" xmlns="http://www.w3.org/2000/svg" xmlns:xlink="http://www.w3.org/1999/xlink" x="0px" y="0px"
	 viewBox="0 0 100 100" style="enable-background:new 0 0 100 100;" xml:space="preserve">
<path d="M97.8,45.4c-0.1-1.3-1.7-2.3-3-2.3c-5.8,0.1-10.6-4.5-10.6-10.3c0-3,1.2-5.9,3.4-7.9c1-0.9,1.1-2.5,0.3-3.6
	c-2.2-2.8-4.7-5.4-7.5-7.6c-1.1-0.9-2.7-0.7-3.6,0.3c-2.8,3.1-7.9,4.3-11.8,2.7c-4.1-1.7-6.7-5.9-6.4-10.3c0.1-1.4-0.9-2.6-2.3-2.8
	C52.6,3.1,49,3,45.4,3.4C44,3.6,43,4.8,43.1,6.2c0.1,4.4-2.4,8.4-6.5,10.1c-4.1,1.5-8.7,0.5-11.8-2.7c-0.9-1-2.5-1.1-3.6-0.3
	c-2.8,2.2-5.4,4.8-7.7,7.6c-0.9,1.1-0.8,2.7,0.3,3.6c3.3,3,4.4,7.7,2.7,11.8c-1.6,3.9-5.7,6.4-10.3,6.4c-1.4-0.1-2.6,1-2.7,2.3
	C3,48.7,3,52.3,3.4,55.9c0.1,1.3,1.8,2.3,3.1,2.3c4.3,0,8.1,2.5,9.8,6.5c1.7,4.1,0.6,8.8-2.7,11.8c-1,0.9-1.2,2.5-0.3,3.6
	c2.2,2.8,4.7,5.4,7.5,7.6c1.1,0.9,2.7,0.8,3.6-0.3c2.8-3.1,7.9-4.3,11.8-2.7c4.1,1.7,6.7,5.9,6.4,10.3c-0.1,1.4,0.9,2.6,2.3,2.8
	c1.8,0.2,3.6,0.3,5.5,0.3c1.7,0,3.5-0.1,5.2-0.3c1.4-0.1,2.4-1.4,2.3-2.7c-0.2-4.4,2.4-8.4,6.5-10.1c4.1-1.5,8.7-0.5,11.8,2.7
	c0.9,1,2.5,1.2,3.6,0.3c2.9-2.2,5.4-4.8,7.7-7.6c0.9-1.1,0.8-2.7-0.3-3.6c-3.3-3-4.4-7.7-2.7-11.8c1.7-3.9,5.5-6.4,9.7-6.5H95
	c1.4,0.1,2.6-0.9,2.8-2.3C98.2,52.5,98.2,48.9,97.8,45.4L97.8,45.4z M50.7,66.6c-8.8,0-15.9-7.1-15.9-15.9s7.1-15.9,15.9-15.9
	S66.6,42,66.6,50.7C66.6,59.5,59.5,66.6,50.7,66.6z"/>
</svg>
