<?xml version="1.0" encoding="utf-8"?>
<!-- Generator: Adobe Illustrator 21.0.0, SVG Export Plug-In . SVG Version: 6.00 Build 0)  -->
<svg version="1.1" id="Layer_1" xmlns="http://www.w3.org/2000/svg" xmlns:xlink="http://www.w3.org/1999/xlink" x="0px" y="0px"
	 viewBox="0 0 100 100" style="enable-background:new 0 0 100 100;" xml:space="preserve">
<style type="text/css">
	.st0{fill:#42342A;}
	.st1{fill:#FFCE00;}
</style>
<g transform="translate(775 785)">
	<path class="st0" d="M-679.1-698.6h-3.2v-53.8c0-4.4-3.5-7.9-7.9-7.9c0,0,0,0,0,0h-14.3c0-0.5,0.1-1,0.1-1.6
		c0-11.4-9.2-20.6-20.6-20.6c-11.4,0-20.6,9.2-20.6,20.6c0,0.5,0,1.1,0.1,1.6h-14.3c-4.4,0-7.9,3.5-7.9,7.9c0,0,0,0,0,0v53.8h-3.2
		c-0.9,0-1.6,0.7-1.6,1.6v1.6c0,4.4,3.5,7.9,7.9,7.9c0,0,0,0,0,0h79.2c4.4,0,7.9-3.5,7.9-7.9c0,0,0,0,0,0v-1.6
		C-677.5-697.9-678.2-698.6-679.1-698.6z M-725-779.3c9.6,0,17.4,7.8,17.4,17.4c0,5.9-3,11.4-7.9,14.6c-0.6,0.4-1.3,0.8-2,1.1
		c-0.1,0-0.1,0.1-0.2,0.1c-4.6,2.1-9.9,2.1-14.6,0c-0.1,0-0.1-0.1-0.2-0.1c-0.7-0.3-1.3-0.7-2-1.1c-8.1-5.2-10.4-16-5.2-24
		C-736.4-776.3-730.9-779.3-725-779.3z M-706-704.9h-6.3v-22.2h6.3V-704.9z M-704.4-730.2h-9.5c-0.9,0-1.6,0.7-1.6,1.6v23.7h-3.2
		v-17.4c0-0.9-0.7-1.6-1.6-1.6h-9.5c-0.9,0-1.6,0.7-1.6,1.6v17.4h-3.2V-716c0-0.9-0.7-1.6-1.6-1.6h-9.5c-0.9,0-1.6,0.7-1.6,1.6v11.1
		h-11.1v-45.9h15.9c0.7,1.1,1.6,2.2,2.5,3.2h-5.8c-3.5,0-6.3,2.8-6.3,6.3c0,3.5,2.8,6.3,6.3,6.3h41.2c3.5,0,6.3-2.8,6.3-6.3
		c0-3.5-2.8-6.3-6.3-6.3h-5.8c0.9-1,1.8-2,2.5-3.2h15.9v45.9h-11.1v-23.7C-702.8-729.5-703.5-730.2-704.4-730.2z M-721.8-704.9h-6.3
		v-15.8h6.3L-721.8-704.9z M-737.7-704.9h-6.3v-9.5h6.3L-737.7-704.9z M-733.2-743c0.1,0.1,0.3,0.1,0.4,0.2c0.4,0.2,0.9,0.3,1.3,0.5
		c0.2,0,0.3,0.1,0.5,0.1c0.6,0.2,1.1,0.3,1.7,0.5c0.1,0,0.2,0,0.3,0.1c0.5,0.1,1,0.2,1.5,0.2l0.5,0.1c0.6,0.1,1.2,0.1,1.9,0.1
		s1.2,0,1.9-0.1l0.5-0.1c0.5-0.1,1-0.1,1.5-0.2c0.1,0,0.2,0,0.3-0.1c0.6-0.1,1.2-0.3,1.7-0.5c0.2,0,0.3-0.1,0.5-0.1
		c0.5-0.1,0.9-0.3,1.3-0.5c0.1-0.1,0.3-0.1,0.4-0.2c0.6-0.2,1.1-0.5,1.6-0.8c0.1,0,0.1-0.1,0.2-0.1c0.3-0.2,0.7-0.4,1-0.6h9.6
		c1.7,0,3.1,1.5,3.1,3.2c0,1.7-1.4,3.1-3.1,3.1h-41.2c-1.7,0-3.1-1.5-3.1-3.2c0-1.7,1.4-3.1,3.1-3.1h9.6c0.3,0.2,0.7,0.4,1,0.6
		c0.1,0,0.1,0.1,0.2,0.1C-734.2-743.5-733.7-743.3-733.2-743L-733.2-743z M-764.6-752.4c0-2.6,2.1-4.7,4.7-4.7h14.8
		c0.3,1.1,0.6,2.1,1,3.2h-15.8c-0.9,0-1.6,0.7-1.6,1.6v49.1c0,0.9,0.7,1.6,1.6,1.6h69.7c0.9,0,1.6-0.7,1.6-1.6v-49.1
		c0-0.9-0.7-1.6-1.6-1.6H-706c0.4-1,0.8-2.1,1-3.2h14.8c2.6,0,4.7,2.1,4.7,4.8v53.8h-79.2V-752.4z M-685.4-690.7h-79.2
		c-2.6,0-4.7-2.1-4.8-4.8h88.7C-680.7-692.8-682.8-690.7-685.4-690.7L-685.4-690.7z"/>
	<path class="st0" d="M-725-747.7c7.9,0,14.2-6.4,14.2-14.2c0-7.9-6.4-14.2-14.2-14.2s-14.2,6.4-14.2,14.2
		C-739.2-754.1-732.9-747.7-725-747.7z M-725-773c6.1,0,11.1,5,11.1,11.1c0,6.1-5,11.1-11.1,11.1c-6.1,0-11.1-5-11.1-11.1
		C-736.1-768-731.1-773-725-773z"/>
	<circle class="st1" cx="-725" cy="-761.9" r="11.1"/>
</g>
</svg>
