<?xml version="1.0" encoding="utf-8"?>
<!-- Generator: Adobe Illustrator 21.0.0, SVG Export Plug-In . SVG Version: 6.00 Build 0)  -->
<svg version="1.1" id="Layer_1" xmlns="http://www.w3.org/2000/svg" xmlns:xlink="http://www.w3.org/1999/xlink" x="0px" y="0px"
	 viewBox="0 0 100 100" style="enable-background:new 0 0 100 100;" xml:space="preserve">
<style type="text/css">
	.st0{fill:#507C5C;}
	.st1{fill:#CFF09E;}
</style>
<g transform="translate(761 638)">
	<g transform="translate(118 54.519)">
		<path class="st0" d="M-847.4-599.3c-1.8,0-4.5-0.9-10.4-7.5c-3-3.4-5.5-6.7-5.6-6.8c-0.1-0.1-0.1-0.2-0.2-0.3
			c-1.1-2-1.7-4.3-1.7-6.6v-16.9c0-1.5,1.2-2.7,2.7-2.7h21.5c3.1,0,6,1.2,8.2,3.4l11,10.9c3.2,3.2,3.2,8.4,0,11.6s-8.4,3.2-11.6,0
			l-11-11c-1.1,0-2.9,0-4.3,0l-2,0c-1.5,0-2.7-1.2-2.7-2.7s1.2-2.7,2.7-2.7h0l2,0c1.3,0,2.6,0,3.6,0c0.5,0,1,0,1.3,0
			c0.9-0.1,1.7,0.2,2.4,0.8l11.8,11.8c1.1,1.1,2.9,1.1,4,0c1.1-1.1,1.1-2.9,0.1-4c0,0,0,0,0,0l-11-10.9c-1.2-1.2-2.8-1.8-4.5-1.8
			H-860v14.2c0,1.4,0.3,2.7,1,3.9c0.5,0.6,2.5,3.3,4.9,6c4.7,5.3,6.5,6,6.8,6.1h28.8c2,0,4.3-1,6.4-2.1c1.8-0.9,15.5-10.1,23.6-15.8
			c0,0,0.1-0.1,0.1-0.1c1.5-0.9,2-2.9,1.1-4.4c-0.4-0.7-1.2-1.3-2-1.5c-0.8-0.2-1.7-0.1-2.4,0.3l-19.9,13.2
			c-1.2,0.8-2.9,0.5-3.7-0.7s-0.5-2.9,0.7-3.7c0,0,0,0,0.1,0l20-13.2c0,0,0.1,0,0.1-0.1c4-2.4,9.3-1.1,11.7,2.9
			c2.4,4,1.1,9.2-2.8,11.7c-2.5,1.7-21.5,14.8-24.3,16.1c-2.7,1.3-5.7,2.6-8.7,2.6H-847.4z"/>
		<rect x="-873.8" y="-640.8" class="st1" width="15.6" height="35.2"/>
		<g transform="translate(0)">
			<path class="st0" d="M-858.2-602.9h-15.6c-1.5,0-2.7-1.2-2.7-2.7v-35.2c0-1.5,1.2-2.7,2.7-2.7h15.6c1.5,0,2.7,1.2,2.7,2.7v35.2
				C-855.6-604.1-856.7-602.9-858.2-602.9C-858.2-602.9-858.2-602.9-858.2-602.9z M-871.2-608.2h10.3v-29.9h-10.3V-608.2z"/>
			<path class="st0" d="M-825.8-646c-11,0-19.9-8.9-19.9-19.9s8.9-19.9,19.9-19.9s19.9,8.9,19.9,19.9c0,0,0,0,0,0
				C-806-654.9-814.9-646-825.8-646z M-825.8-680.4c-8,0-14.5,6.5-14.5,14.6c0,8,6.5,14.5,14.6,14.5c8,0,14.5-6.5,14.5-14.5
				C-811.3-673.9-817.8-680.4-825.8-680.4L-825.8-680.4z"/>
		</g>
		<circle class="st1" cx="-811.7" cy="-652.6" r="17.2"/>
		<g transform="translate(42.233 12.488)">
			<path class="st0" d="M-854-645.2c-11,0-19.9-8.9-19.9-19.9s8.9-19.9,19.9-19.9s19.9,8.9,19.9,19.9l0,0
				C-834.1-654.1-843-645.2-854-645.2z M-854-679.6c-8,0-14.5,6.5-14.5,14.6c0,8,6.5,14.5,14.6,14.5c8,0,14.5-6.5,14.5-14.5
				C-839.4-673.1-845.9-679.6-854-679.6L-854-679.6z"/>
		</g>
	</g>
</g>
</svg>
