<?xml version="1.0" encoding="utf-8"?>
<!-- Generator: Adobe Illustrator 21.0.0, SVG Export Plug-In . SVG Version: 6.00 Build 0)  -->
<svg version="1.1" id="Layer_1" xmlns="http://www.w3.org/2000/svg" xmlns:xlink="http://www.w3.org/1999/xlink" x="0px" y="0px"
	 viewBox="0 0 100 100" style="enable-background:new 0 0 100 100;" xml:space="preserve">
<style type="text/css">
	.st0{fill:#FFDFA1;}
	.st1{fill:#FFEFCA;}
	.st2{fill:#6BE8C7;}
	.st3{fill:#D3E8F1;}
	.st4{fill:#FFFFFF;}
	.st5{fill:#BED8E4;}
	.st6{fill:#EBF9FE;}
	.st7{fill:#B1C6D3;}
	.st8{fill:#F5FCFF;}
	.st9{fill:#3CD3A8;}
</style>
<g transform="translate(761 638)">
	<g transform="translate(16.754 54.767)">
		<path class="st0" d="M-736-628.3h52.5c1.4,0,2.5-1.1,2.5-2.5c0,0,0,0,0,0v-45c0-1.4-1.1-2.5-2.5-2.5l0,0H-736
			c-1.4,0-2.5,1.1-2.5,2.5l0,0v45C-738.6-629.5-737.4-628.4-736-628.3z"/>
		<path class="st1" d="M-762.3-598.2h62c1.4,0,2.5-1.1,2.5-2.5l0,0v-46.8c0-1.4-1.1-2.5-2.5-2.5c0,0,0,0,0,0h-62
			c-1.4,0-2.5,1.1-2.5,2.5l0,0v46.8C-764.8-599.3-763.6-598.2-762.3-598.2z"/>
		<path class="st2" d="M-708.5-669.3L-708.5-669.3c1.4,0,3.6,11.6,3.6,13v36c0,1.4-1.1,2.5-2.5,2.5l0,0h-2.1c-1.4,0-2.5-1.1-2.5-2.5
			l0,0v-36C-712.1-657.7-709.9-669.3-708.5-669.3z"/>
		<path class="st0" d="M-764.9-610.9h39.8c1.5,0,2.7-1.2,2.7-2.7c0,0,0,0,0,0v-64.7h-42.6V-610.9z"/>
		<path class="st3" d="M-729.8-614.2h-40.9c-1.1,0-2.1-0.9-2.1-2c0,0,0,0,0,0v-68.5c0-1.1,1-2.1,2.1-2h43.6c1.1,0,2.1,0.9,2.1,2
			c0,0,0,0,0,0v68.5c0,1.1-1,2.1-2.1,2h-4.5"/>
		<g transform="translate(9.299 29.624)">
			<path class="st4" d="M-768.3-674.9h-2.4c-1.3,0-2.3-1-2.3-2.3v-3c0-1.3,1-2.3,2.3-2.3h2.4c1.3,0,2.3,1,2.3,2.3v3
				C-766-675.9-767-674.9-768.3-674.9z"/>
			<path class="st4" d="M-746.8-674.9h-2.4c-1.3,0-2.3-1-2.3-2.3v-3c0-1.3,1-2.3,2.3-2.3h2.4c1.3,0,2.3,1,2.3,2.3v3
				C-744.5-675.9-745.5-674.9-746.8-674.9z"/>
			<path class="st4" d="M-768.3-653.7h-2.4c-1.3,0-2.3-1-2.3-2.3v-3c0-1.3,1-2.3,2.3-2.3h2.4c1.3,0,2.3,1,2.3,2.3v3
				C-766-654.7-767-653.7-768.3-653.7z"/>
			<path class="st4" d="M-746.8-653.7h-2.4c-1.3,0-2.3-1-2.3-2.3v-3c0-1.3,1-2.3,2.3-2.3h2.4c1.3,0,2.3,1,2.3,2.3v3
				C-744.5-654.8-745.5-653.7-746.8-653.7C-746.8-653.7-746.8-653.7-746.8-653.7z"/>
		</g>
		<g transform="translate(9.299 29.624)">
			<path class="st5" d="M-757.5-674.9h-2.4c-1.3,0-2.3-1-2.3-2.3v-3c0-1.3,1-2.3,2.3-2.3h2.4c1.3,0,2.3,1,2.3,2.3v3
				C-755.2-675.9-756.2-674.9-757.5-674.9z"/>
			<path class="st5" d="M-768.3-664.3h-2.4c-1.3,0-2.3-1-2.3-2.3v-3c0-1.3,1-2.3,2.3-2.3h2.4c1.3,0,2.3,1,2.3,2.3v3
				C-766-665.3-767-664.3-768.3-664.3z"/>
		</g>
		<path class="st6" d="M-748.2-634.7h-2.4c-1.3,0-2.3-1-2.3-2.3v-3c0-1.3,1-2.3,2.3-2.3h2.4c1.3,0,2.3,1,2.3,2.3v3
			C-745.9-635.7-746.9-634.7-748.2-634.7z"/>
		<path class="st5" d="M-748.2-624.1h-2.4c-1.3,0-2.3-1-2.3-2.3v-3c0-1.3,1-2.3,2.3-2.3h2.4c1.3,0,2.3,1,2.3,2.3v3
			C-745.9-625.1-746.9-624.1-748.2-624.1z"/>
		<path class="st6" d="M-769-686.7h-1.9c-1.1,0-2.1,0.9-2.1,2c0,0,0,0,0,0v68.5c0,1.1,1,2.1,2.1,2h1.9V-686.7z"/>
		<path class="st7" d="M-727.1-686.7h-2.1v72.5h2.1c1.1,0,2.1-0.9,2.1-2c0,0,0,0,0,0v-68.5C-725-685.8-726-686.7-727.1-686.7
			C-727.1-686.7-727.1-686.7-727.1-686.7z"/>
		<path class="st5" d="M-737.9-634.7h-2.4c-1.3,0-2.3-1-2.3-2.3v-3c0-1.3,1-2.3,2.3-2.3h2.4c1.3,0,2.3,1,2.3,2.3v3
			C-735.6-635.7-736.6-634.7-737.9-634.7z"/>
		<path class="st8" d="M-763.4-663.9c-0.9,0.1-1.8-0.5-1.9-1.5v-10.7c0.1-0.9,1-1.6,1.9-1.5h28.3c0.9-0.1,1.8,0.5,1.9,1.5v10.7
			c-0.1,0.9-1,1.6-1.9,1.5L-763.4-663.9L-763.4-663.9z"/>
		<path class="st9" d="M-707.5-617.8c1.4,0,2.5-1.1,2.5-2.5l0,0v-36c0-1.4-2.2-13-3.6-13l0,0c-0.4,0-0.9,1-1.4,2.5
			C-706.7-658.9-707.5-651.3-707.5-617.8z"/>
		<path d="M-758.4-653.6h-3.1c-1.7,0-3.1,1.4-3.1,3.1v3.1c0,1.7,1.4,3.1,3.1,3.1h0.4c0.9,0,1.6-0.7,1.6-1.6c0-0.9-0.7-1.6-1.6-1.6
			c0,0,0,0,0,0h-0.3v-2.9h2.9v3c-0.1,0.9,0.5,1.7,1.4,1.8c0.9,0.1,1.7-0.5,1.8-1.4l0,0c0-0.1,0-0.3,0-0.4v-3.1
			C-755.4-652.2-756.7-653.6-758.4-653.6C-758.4-653.6-758.4-653.6-758.4-653.6z"/>
		<path d="M-747.9-653.6h-3.1c-1.7,0-3.1,1.4-3.1,3.1v3.1c0,1.7,1.4,3.1,3.1,3.1h0.4c0.9,0,1.6-0.7,1.6-1.6c0-0.9-0.7-1.6-1.6-1.6
			c0,0,0,0,0,0h-0.3v-2.9h2.9v3c-0.1,0.9,0.5,1.7,1.4,1.8s1.7-0.5,1.8-1.4l0,0c0-0.1,0-0.3,0-0.4v-3.1
			C-744.8-652.2-746.2-653.6-747.9-653.6C-747.8-653.6-747.8-653.6-747.9-653.6z"/>
		<path d="M-737.3-653.6h-3.1c-1.7,0-3.1,1.4-3.1,3.1v3.1c0,1.7,1.4,3.1,3.1,3.1h0.4c0.9,0,1.6-0.7,1.6-1.6c0-0.9-0.7-1.6-1.6-1.6
			c0,0,0,0,0,0h-0.3v-2.9h2.9v3c-0.1,0.9,0.5,1.7,1.4,1.8c0.9,0.1,1.7-0.5,1.8-1.4l0,0c0-0.1,0-0.3,0-0.4v-3.1
			C-734.2-652.2-735.6-653.6-737.3-653.6z"/>
		<path d="M-758.4-643.3h-3.1c-1.7,0-3.1,1.4-3.1,3.1v3.1c0,1.7,1.4,3.1,3.1,3.1h0.4c0.9,0,1.6-0.7,1.6-1.6c0-0.9-0.7-1.6-1.6-1.6
			c0,0,0,0,0,0h-0.3v-2.9h2.9v3c-0.1,0.9,0.5,1.7,1.4,1.8c0.9,0.1,1.7-0.5,1.8-1.4l0,0c0-0.1,0-0.3,0-0.4v-3.1
			C-755.4-641.9-756.7-643.3-758.4-643.3C-758.4-643.3-758.4-643.3-758.4-643.3z"/>
		<path d="M-747.9-643.3h-3.1c-1.7,0-3.1,1.4-3.1,3.1v3.1c0,1.7,1.4,3.1,3.1,3.1h0.4c0.9,0,1.6-0.7,1.6-1.6c0-0.9-0.7-1.6-1.6-1.6
			c0,0,0,0,0,0h-0.3v-2.9h2.9v3c-0.1,0.9,0.5,1.7,1.4,1.8s1.7-0.5,1.8-1.4l0,0c0-0.1,0-0.3,0-0.4v-3.1
			C-744.8-641.9-746.1-643.3-747.9-643.3C-747.8-643.3-747.8-643.3-747.9-643.3z"/>
		<path d="M-737.3-643.3h-3.1c-1.7,0-3.1,1.4-3.1,3.1v3.1c0,1.7,1.4,3.1,3.1,3.1h0.4c0.9,0,1.6-0.7,1.6-1.6c0-0.9-0.7-1.6-1.6-1.6
			c0,0,0,0,0,0h-0.3v-2.9h2.9v3c-0.1,0.9,0.5,1.7,1.4,1.8c0.9,0.1,1.7-0.5,1.8-1.4l0,0c0-0.1,0-0.3,0-0.4v-3.1
			C-734.2-641.9-735.6-643.3-737.3-643.3C-737.3-643.3-737.3-643.3-737.3-643.3z"/>
		<path d="M-758.6-633h-3.1c-1.7,0-3.1,1.4-3.1,3.1v3.1c0,1.7,1.4,3.1,3.1,3.1h0.4c0.9,0,1.6-0.7,1.6-1.6s-0.7-1.6-1.6-1.6h-0.3
			v-2.9h2.9v3c-0.1,0.9,0.5,1.7,1.4,1.8c0.9,0.1,1.7-0.5,1.8-1.4c0-0.1,0-0.3,0-0.4v-3.1C-755.5-631.7-756.9-633-758.6-633
			C-758.6-633-758.6-633-758.6-633z"/>
		<path d="M-748-633h-3.1c-1.7,0-3.1,1.4-3.1,3.1v3.1c0,1.7,1.4,3.1,3.1,3.1h0.4c0.9,0,1.6-0.7,1.6-1.6s-0.7-1.6-1.6-1.6h-0.3v-2.9
			h2.9v3c-0.1,0.9,0.5,1.7,1.4,1.8c0.9,0.1,1.7-0.5,1.8-1.4c0-0.1,0-0.3,0-0.4v-3.1C-745-631.7-746.3-633-748-633z"/>
		<path d="M-737.4-633h-3.1c-1.7,0-3.1,1.4-3.1,3.1v3.1c0,1.7,1.4,3.1,3.1,3.1h0.4c0.9,0,1.6-0.7,1.6-1.6s-0.7-1.6-1.6-1.6h-0.3
			v-2.9h2.9v3c-0.1,0.9,0.5,1.7,1.4,1.8c0.9,0.1,1.7-0.5,1.8-1.4c0-0.1,0-0.3,0-0.4v-3.1C-734.4-631.7-735.7-633-737.4-633z"/>
		<path d="M-735.3-678.9h-28.2c-1.6,0-3,1.3-3,3c0,0,0,0,0,0v10.3c0,1.6,1.3,3,3,3c0,0,0,0,0,0h18.4c0.9,0,1.6-0.7,1.6-1.6
			c0-0.9-0.7-1.6-1.6-1.6h-18.2v-10h27.9v10h-3.8c-0.9,0-1.6,0.7-1.6,1.6c0,0.9,0.7,1.6,1.6,1.6h3.9c1.6,0,3-1.3,3-3c0,0,0,0,0,0
			V-676C-732.4-677.6-733.7-678.9-735.3-678.9z"/>
		<path d="M-759.5-670.4c-0.9,0-1.6,0.7-1.6,1.6c0,0.9,0.7,1.6,1.6,1.6h3.4c0.9,0,1.6-0.7,1.6-1.6c0-0.9-0.7-1.6-1.6-1.6H-759.5z"/>
		<path d="M-724.1-616.5v-68.2c0-2.1-1.7-3.8-3.8-3.8H-771c-2.1,0-3.8,1.7-3.8,3.8v68.2c0,2.1,1.7,3.8,3.8,3.8h43.1
			C-725.8-612.8-724.1-614.4-724.1-616.5z M-771.6-616.5v-68.2c0-0.4,0.3-0.6,0.6-0.6h43.1c0.4,0,0.6,0.3,0.6,0.6v68.2
			c0,0.4-0.3,0.6-0.6,0.6H-771C-771.3-615.9-771.6-616.2-771.6-616.5z"/>
		<path d="M-681.3-680.3h-37.4c-0.9,0-1.6,0.7-1.6,1.6s0.7,1.6,1.6,1.6h35.8v46.8h-7c-0.9,0-1.6,0.7-1.6,1.6s0.7,1.6,1.6,1.6l0,0
			h8.5c0.9,0,1.6-0.7,1.6-1.6c0,0,0,0,0,0v-49.9C-679.8-679.5-680.4-680.2-681.3-680.3C-681.3-680.3-681.3-680.3-681.3-680.3z"/>
		<path d="M-697.8-651.8h-2.3c-0.9,0-1.6,0.7-1.6,1.6c0,0.9,0.7,1.6,1.6,1.6c0,0,0,0,0,0h0.8v48.5h-63.3v-7.8c0-0.9-0.7-1.6-1.6-1.6
			s-1.6,0.7-1.6,1.6v9.4c0,0.9,0.7,1.6,1.6,1.6c0,0,0,0,0,0h66.4c0.9,0,1.6-0.7,1.6-1.6c0,0,0,0,0,0v-51.7
			C-696.3-651.1-697-651.8-697.8-651.8C-697.8-651.8-697.8-651.8-697.8-651.8z"/>
		<path d="M-716.8-651.8h-1.9c-0.9,0-1.6,0.7-1.6,1.6s0.7,1.6,1.6,1.6c0,0,0,0,0,0h1.9c0.9,0,1.6-0.7,1.6-1.6
			C-715.3-651.1-716-651.8-716.8-651.8C-716.8-651.8-716.8-651.8-716.8-651.8z"/>
		<path d="M-703.7-660.4v-0.1c0,0,0-0.1,0-0.1c0,0,0-0.1,0-0.1v-0.1l0,0L-707-672c-0.2-0.7-0.8-1.1-1.5-1.1c-0.7,0-1.3,0.4-1.5,1.1
			l-3.7,11.2l0,0c0,0,0,0.1,0,0.1c0,0,0,0,0,0c0,0,0,0.1,0,0.1c0,0,0,0.1,0,0.1v0.1l0,0v42.1c0,0.9,0.7,1.6,1.6,1.6c0,0,0,0,0,0h6.9
			c0.9,0,1.6-0.7,1.6-1.6c0,0,0,0,0,0v-9.9c0-0.9-0.7-1.6-1.6-1.6s-1.6,0.7-1.6,1.6l0,0v8.4h-3.8v-38.9h3.8v23.4
			c0,0.9,0.7,1.6,1.6,1.6s1.6-0.7,1.6-1.6L-703.7-660.4L-703.7-660.4L-703.7-660.4L-703.7-660.4z M-708.6-666.2l1.3,4.3h-2.7
			L-708.6-666.2z"/>
		<path d="M-699.7-666.4h11.2c0.9,0,1.6-0.7,1.6-1.6s-0.7-1.6-1.6-1.6h-11.2c-0.9,0-1.6,0.7-1.6,1.6S-700.6-666.4-699.7-666.4z"/>
		<path d="M-699.7-658.4h11.2c0.9,0,1.6-0.7,1.6-1.6s-0.7-1.6-1.6-1.6c0,0,0,0,0,0h-11.2c-0.9,0-1.6,0.7-1.6,1.6
			C-701.3-659.1-700.6-658.4-699.7-658.4C-699.7-658.4-699.7-658.4-699.7-658.4z"/>
		<path d="M-758.1-606.7c0,0.9,0.7,1.6,1.6,1.6c0,0,0,0,0,0h50.6c0.9,0,1.6-0.7,1.6-1.6s-0.7-1.6-1.6-1.6h-50.6
			C-757.4-608.3-758.1-607.6-758.1-606.7C-758.1-606.7-758.1-606.7-758.1-606.7z"/>
	</g>
</g>
</svg>
