<?xml version="1.0" encoding="utf-8"?>
<!-- Generator: Adobe Illustrator 21.0.0, SVG Export Plug-In . SVG Version: 6.00 Build 0)  -->
<svg version="1.1" id="Layer_1" xmlns="http://www.w3.org/2000/svg" xmlns:xlink="http://www.w3.org/1999/xlink" x="0px" y="0px"
	 viewBox="0 0 100 100" style="enable-background:new 0 0 100 100;" xml:space="preserve">
<style type="text/css">
	.st0{fill:#E4C6A1;}
	.st1{fill:#875426;}
	.st2{fill:#996632;}
	.st3{fill:#42210B;}
	.st4{fill:#67BC34;}
	.st5{fill:#7AC943;}
	.st6{fill:#FF9900;}
	.st7{fill:#FFC600;}
	.st8{fill:#CC9966;}
</style>
<g transform="translate(990.751 690.859)">
	<g transform="translate(3.01 33.873)">
		<path class="st0" d="M-946.5-645.8c0.4,1.8,0,3.6-1.1,5l-1.4,2.2c-1,1.4-2.5,2.4-4.2,2.8c-1.8,0.4-3.6,0-5-1.1l-16.6-11.1
			c-1-0.7-1.7-1.6-2.2-2.7l-10.7-25.7c-0.5-0.9-0.5-2,0-3c0.4-0.9,1.1-1.6,2-1.9c2-0.6,4.1,0.5,4.9,2.4l11.9,28.1
			c0.1,0.3,0.3,0.5,0.6,0.6l0.5,0.3h0.2c0.9,0.6,3.1,2.2,8.9,6.1c0.3,0.2,0.6,0.3,0.9,0.3c0.5,0,1-0.2,1.3-0.6
			c0.5-0.7,0.3-1.7-0.4-2.1c0,0-0.1,0-0.1-0.1c-3-2-7.4-5-8.8-6c-1-1.3-1-3.1-0.2-4.6c1.3-1.9,3.9-2.3,5.8-0.9l11,7.5
			C-947.7-649.2-946.8-647.6-946.5-645.8z"/>
		<path class="st0" d="M-899.2-679.4c-0.4-0.9-1.1-1.6-2-1.9c-0.6-0.1-1.3-0.2-1.9-0.2c-1.9-0.3-3.7,0.6-4.6,2.4l-12.1,28.1
			c-0.1,0.2-0.3,0.4-0.5,0.6l-0.5,0.5h-0.2c-0.9,0.6-3.1,2.2-8.9,6.1l0,0l-0.5-0.5c-0.5-0.7-0.3-1.7,0.4-2.1c0,0,0.1,0,0.1-0.1
			c3-2,7.4-5,8.8-6c1-1.3,1.1-3.1,0.2-4.6c-0.9-1.3-2.5-1.9-4.1-1.6c-1.1-0.2-2.3,0-3.3,0.6l-11,7.5c-1.5,0.9-2.5,2.5-2.8,4.2
			c-0.4,1.8,0,3.6,1.1,5l1.6,2.4c1,1.4,2.5,2.4,4.2,2.8c0.7,0.2,1.4,0.2,2,0c1.6,0.2,3.2-0.2,4.6-1.1l16.5-11c1-0.7,1.7-1.6,2.2-2.7
			l10.7-25.7C-898.8-677.4-898.8-678.5-899.2-679.4z"/>
	</g>
	<path class="st1" d="M-930.4-623.3l-6.6,4.4c-1.8,1.2-3.1,3-3.8,5c-0.7-2-2-3.8-3.8-5l-6.4-4.4l10.7-8.8L-930.4-623.3z"/>
	<path class="st2" d="M-930.4-623.3l-6.6,4.4c-1.8,1.2-3.1,3-3.8,5c-0.7-2-2-3.8-3.8-5l-6.4-4.4l7.4-3.8c2.1-1.1,4.6-1.1,6.7,0
		L-930.4-623.3z"/>
	<path class="st3" d="M-910.3-637.2c0.2-0.6,0.8-0.9,1.4-0.9c0.9,0,1.6,0.7,1.6,1.5c0,0.2,0,0.5-0.1,0.7l-2,4.6
		c-0.3,0.8-1.2,1.2-2,0.9c-0.1-0.1-0.3-0.1-0.4-0.2c-0.1-0.1-0.2-0.1-0.3-0.2c-0.5-0.4-0.6-1.1-0.3-1.7L-910.3-637.2z"/>
	<path class="st4" d="M-922-653.1v1.3c0,4.4-3.6,8-8,8h-8.3v-1.3c0-4.4,3.6-8,8-8H-922z"/>
	<path class="st5" d="M-935.3-651.4c-1.9,1.5-3,3.8-3,6.3v1.3h8.3c2.8,0.1,5.1-2.1,5.1-4.9c0-0.6-0.1-1.2-0.3-1.7v-1.3h-8.3
		C-934.2-651.5-934.8-651.5-935.3-651.4z"/>
	<path class="st3" d="M-940-676.6c2.2,0.2,3.3,0.8,3.3,1.7c0,0.8-0.3,1.1-1.1,1.1c-0.4-0.1-0.8-0.1-1.3-0.2
		c-0.4-0.1-0.8-0.2-1.3-0.2c-1.1,0-1.7,0.5-1.7,1.4c0,0.5,0.3,0.9,1.1,1.3c0.5,0.2,1,0.5,1.6,0.6c2.4,0.8,3.6,2,3.6,3.8
		c0,0.5-0.1,1.1-0.3,1.6c-0.2,0.5-0.4,0.9-0.8,1.3c-0.4,0.4-0.8,0.7-1.3,0.9c-0.5,0.2-1.1,0.3-1.6,0.5v1.4c0,0.5-0.2,0.8-0.5,0.8
		c-0.3,0-0.5-0.3-0.5-0.8v-1.4c-2.5-0.3-3.9-0.9-3.9-1.9c0-0.8,0.5-1.1,1.3-1.1c0.5,0.1,1.1,0.2,1.6,0.3c0.6,0.2,1.1,0.3,1.7,0.3
		c0.5,0,0.9-0.2,1.3-0.5c0.3-0.3,0.5-0.7,0.5-1.1c0-0.6-0.3-1.1-0.8-1.4c-0.2-0.2-0.3-0.2-0.6-0.3c-0.3-0.2-0.6-0.2-0.9-0.3
		c-0.9-0.2-1.7-0.6-2.5-1.1c-0.7-0.6-1.1-1.4-1.1-2.4c-0.1-1,0.3-2,1.1-2.7c0.7-0.7,1.7-1.1,2.7-1.3v-1.4c0-0.5,0.2-0.8,0.5-0.8
		c0.3,0,0.5,0.3,0.5,0.8v0.9L-940-676.6L-940-676.6z"/>
	<path class="st6" d="M-939.2-665.8c-0.3,0.3-0.8,0.5-1.3,0.5c-0.6-0.1-1.2-0.2-1.7-0.3c-0.4-0.2-0.9-0.3-1.4-0.3
		c-0.9,0-1.3,0.3-1.3,1.1c0,1.1,1.3,1.7,3.9,1.9v1.4c0,0.5,0.2,0.8,0.5,0.8c0.3,0,0.5-0.3,0.5-0.8v-1.4c0.6,0,1.1-0.2,1.6-0.5
		c0.5-0.2,1-0.5,1.3-0.9c0.4-0.4,0.6-0.8,0.8-1.3c0.2-0.5,0.3-1,0.3-1.6c0-1.7-1.3-3.1-3.6-3.8c-0.6-0.1-1.1-0.3-1.6-0.6
		c-0.6-0.3-1.1-0.8-1.1-1.3c0-0.9,0.6-1.4,1.7-1.4c0.3,0,0.6,0.2,1.3,0.2c0.5,0.2,1,0.3,1.6,0.3c0.8,0,1.1-0.3,1.1-1.1
		c0-0.9-1.1-1.6-3.3-1.7v-0.9c0-0.5-0.2-0.8-0.5-0.8c-0.3,0-0.5,0.3-0.5,0.8v1.1c-1,0.1-1.9,0.6-2.7,1.3c-0.8,0.7-1.2,1.7-1.1,2.7
		c-0.1,0.9,0.3,1.8,1.1,2.4c0.7,0.5,1.6,0.9,2.5,1.1c0.3,0.1,0.6,0.2,0.9,0.3c0.3,0.2,0.5,0.2,0.6,0.3c0.5,0.3,0.9,0.8,0.8,1.4
		C-938.5-666.6-938.8-666-939.2-665.8z M-940.2-680.1c5.7,0,10.4,4.6,10.4,10.3c0,0,0,0,0,0c0,5.7-4.6,10.4-10.4,10.4
		c-5.7,0-10.4-4.6-10.4-10.4S-945.9-680.1-940.2-680.1z"/>
	<path class="st4" d="M-942-639.8h-6.1c-0.5,0-0.9,0.3-1.3,0.6h-1.4c-0.4,0-0.7,0-1.1-0.2c-0.1-0.5-0.5-0.8-0.9-0.9
		c-3.3-1.1-5.5-4.2-5.5-7.7v-1.3h8.3c4.4,0,8,3.6,8,8V-639.8L-942-639.8z"/>
	<path class="st5" d="M-950.2-649.2h-5.2v1.3c0,3.5,2.2,6.6,5.5,7.7c0.4,0.1,0.7,0.4,0.8,0.8c0.3-0.2,0.6-0.3,0.9-0.3h6.1v-1.3
		c0-4.5-3.6-8.1-8.1-8.2C-950.1-649.2-950.2-649.2-950.2-649.2z"/>
	<g transform="translate(-0.008 0.041)">
		<path class="st3" d="M-944.2-646.9c2,1.5,3.2,3.9,3.1,6.4v1.3h-8.5c0.3-0.4,0.8-0.7,1.3-0.6h6.1v-1.3c0-4.4-3.6-8-8-8h-8.3v1.3
			c0,3.5,2.2,6.6,5.5,7.7c0.5,0.1,0.8,0.5,0.9,0.9c-4-0.5-7-4-6.9-8v-1.3l0,0v-1.6h8.3C-948.2-650-945.8-648.9-944.2-646.9z"/>
		<path class="st3" d="M-955.9-609.8c-5.8-3.9-8-5.5-8.9-6.1h-0.2l-0.5-0.3l-0.6-0.6l-11.8-28.1c-0.8-1.9-2.9-2.9-4.9-2.4
			c-0.9,0.3-1.6,0.9-2,1.7c-0.5,0.9-0.5,1.9,0,2.8l10.7,25.7c0.5,1.1,1.2,2,2.2,2.7l16.5,11.5c1.5,1,3.3,1.4,5,1.1
			c1.8-0.3,3.3-1.3,4.2-2.8l1.6-2.4c1-1.5,1.4-3.3,1.1-5c-0.3-1.7-1.4-3.3-2.8-4.2l-11-7.5c-1.9-1.3-4.4-0.9-5.8,0.9
			c-0.9,1.4-0.8,3.2,0.2,4.6c1.4,0.9,5.8,3.9,8.8,6c0.7,0.4,1,1.4,0.5,2.1c0,0,0,0.1-0.1,0.1c-0.3,0.4-0.8,0.7-1.3,0.6
			C-955.2-609.7-955.5-609.7-955.9-609.8z M-940.8-613.9c0.7-2,2-3.8,3.8-5l6.6-4.6l-9.9-8.6l-10.7,8.8l6.4,4.4
			C-942.7-617.7-941.4-616-940.8-613.9L-940.8-613.9z M-930-669.9c0-5.7-4.6-10.4-10.4-10.4s-10.4,4.6-10.4,10.4
			c0.1,5.7,4.8,10.3,10.5,10.2C-934.6-659.9-930.1-664.4-930-669.9z M-930.1-643.9c4.4,0,8-3.6,8-8v-1.3h-8.2c-4.4,0-8,3.6-8,8v1.3
			H-930.1z M-925.9-626.5c3.2-2.3,7.6-1.6,9.9,1.5c0,0.1,0.1,0.1,0.1,0.2l0.2,0.2l1.3-2.8c0.2-0.6,0.8-0.9,1.4-0.9
			c0.9,0,1.6,0.7,1.5,1.6c0,0.2,0,0.4-0.1,0.6l-3.9,9.3c-0.1,0.2-0.3,0.4-0.5,0.6l-0.5,0.3l0,0c-0.9,0.6-3.1,2.2-8.9,6.1
			c-0.2,0.1-0.5,0.3-0.8,0.3c-0.5,0-1-0.2-1.3-0.6c-0.5-0.7-0.3-1.7,0.4-2.1c0,0,0.1,0,0.1-0.1c3-2,7.4-5,8.8-6c1-1.3,1-3.1,0.2-4.6
			c-0.8-1.1-2-1.7-3.3-1.7c-0.9,0-1.8,0.3-2.5,0.8l-11,7.5c-1.7,1.2-2.8,3.1-3,5.2c-0.1,1.6,0.4,3.1,1.3,4.4l1.4,2
			c1.2,1.7,3.1,2.8,5.2,3c1.6,0.1,3.1-0.4,4.4-1.3l16-11.3c1-0.7,1.7-1.6,2.2-2.7l10.7-25.7c0.5-0.9,0.5-1.9,0-2.8
			c-0.4-0.9-1.1-1.6-2-1.9c-2-0.6-4.1,0.5-4.9,2.4l-1.6,3.6c-0.2,0.6-0.8,0.9-1.4,0.9c-0.3,0-0.7-0.1-0.9-0.3
			c-0.6-0.4-0.8-1.2-0.5-1.9l1.6-3.6c1.4-3.4,5.1-5.1,8.6-4.1c1.7,0.6,3.2,1.8,3.9,3.5c0.8,1.7,0.8,3.6,0.2,5.3l-10.8,25.7
			c-0.7,1.6-1.9,3-3.3,4.1l-16.5,11.3c-1.6,1.1-3.5,1.7-5.5,1.7c-1,0-1.9-0.2-2.8-0.5c-2.3-0.6-4.2-2.1-5.5-4.1l-1.4-2
			c-0.5-0.8-0.9-1.6-1.3-2.5c-0.3,0.9-0.7,1.7-1.3,2.5l-1.3,2c-1.3,2-3.2,3.4-5.5,4.1c-0.9,0.3-1.9,0.5-2.8,0.5
			c-2,0-3.9-0.6-5.5-1.7l-16.5-11.3c-1.5-0.9-2.7-2.4-3.3-4.1l-10.8-25.7c-0.7-1.7-0.7-3.6,0-5.3c0.9-1.6,2.3-2.9,4.1-3.5
			c3.5-1.1,7.3,0.7,8.6,4.1l9.3,21.7v-0.2c2.3-3.2,6.8-3.9,10-1.7l1.9,1.4l11.8-9.7v-2h-6.4c-0.9,0-1.6-0.7-1.6-1.6
			c0-0.3,0.1-0.6,0.3-0.8h8.5v-1.3c0-2.5-1.2-4.9-3.1-6.4c-1.5-2-3.9-3.2-6.4-3.1h-8.3v1.6l0,0v1.3c0,4,2.9,7.4,6.9,8v0.5
			c0,0.9-0.6,1.6-1.5,1.6c-0.2,0-0.4,0-0.5-0.1c-4.6-1.5-7.6-5.7-7.7-10.5v-2.8c-0.1-0.8,0.6-1.5,1.4-1.6c0.1,0,0.1,0,0.2,0h9.9
			c3.2,0,6.2,1.4,8.3,3.8v-8.3c-7.3-0.9-12.5-7.5-11.7-14.8c0.8-6.9,6.8-12,13.7-11.8c7.3,0.3,13,6.4,13,13.7
			c-0.2,6.7-5.2,12.2-11.8,13v4.2c2.1-2.4,5.1-3.8,8.3-3.8h9.9c0.9,0,1.6,0.7,1.6,1.6v2.5c0,6.1-5,11.1-11.1,11.1h-8.6v6l11,9.6
			L-925.9-626.5z"/>
	</g>
	<path class="st7" d="M-950.5-669.6c0.1,5.6,4.8,10.1,10.4,10c5.6-0.1,10.1-4.8,10-10.4c0-1.4-0.3-2.8-0.8-4.1
		c-3.7-4.9-10.6-5.8-15.4-2.2C-948.5-674.7-950-672.3-950.5-669.6z"/>
	<g transform="translate(3.01 35.129)">
		<path class="st8" d="M-974.9-649.3l16.5,11.3c1.5,1,3.3,1.4,5,1.1c1.1-0.1,2.1-0.6,2.8-1.4c-4.2,1.7-14.8-5.7-20.7-10.4
			c-2.9-2.2-5.1-5.2-6.4-8.6l-9.7-23.9c-0.2,0.2-0.3,0.4-0.3,0.6c-0.5,0.9-0.5,2,0,3l10.7,25.7
			C-976.6-650.8-975.9-649.9-974.9-649.3z"/>
		<path class="st8" d="M-899.2-680.7c-0.2-0.3-0.3-0.5-0.5-0.8l-0.3,0.2c-0.2,0.5-7.2,18.4-10,25.7c-0.7,2-2,3.8-3.8,5l-18.5,13.7
			c1.4,0,2.8-0.4,3.9-1.1l16.3-11.3c1-0.7,1.7-1.6,2.2-2.7l10.7-25.7C-898.8-678.6-898.8-679.8-899.2-680.7z"/>
	</g>
</g>
</svg>
