<?xml version="1.0" encoding="utf-8"?>
<!-- Generator: Adobe Illustrator 21.0.0, SVG Export Plug-In . SVG Version: 6.00 Build 0)  -->
<svg version="1.1" id="Layer_1" xmlns="http://www.w3.org/2000/svg" xmlns:xlink="http://www.w3.org/1999/xlink" x="0px" y="0px"
	 viewBox="0 0 100 100" style="enable-background:new 0 0 100 100;" xml:space="preserve">
<g transform="translate(907 984)">
	<path d="M-836.5-943.2v-1.6c2.1-1.5,3.9-3.3,5.4-5.4c-2.1,0.6-4.3,1-6.5,1.1c2.3-1.3,4-3.4,4.9-5.9c-2.1,1.1-4.2,2-6.5,2.7
		c-1.9-2.2-4.6-3.5-7.6-3.8c-5.7,0.1-10.3,4.8-10.3,10.5c0,0.1,0,0.2,0,0.3v2.7c-8.6-0.6-16.5-4.9-21.6-11.9c-1,1.6-1.6,3.5-1.6,5.4
		c-0.2,3.7,1.7,7.3,4.9,9.2c-1.9,0.5-3.9,0.1-5.4-1.1l0,0c0,5.2,3.6,9.7,8.6,10.8c-1.1,0-1.6,0.5-2.7,0.5h-2.2
		c1.2,4.4,5.2,7.4,9.7,7.6c-3.5,3.4-8.1,5.3-13,5.4h-2.7c4.8,3.2,10.4,4.9,16.2,4.9c16.9-0.2,30.5-14.2,30.2-31.1
		C-836.5-943-836.5-943.1-836.5-943.2z"/>
	<path d="M-809.5-934c0.2-26.1-20.9-47.3-46.9-47.5c-0.2,0-0.4,0-0.6,0c-26.1-0.2-47.3,20.9-47.5,46.9c0,0.2,0,0.4,0,0.6
		c-0.2,26.1,20.9,47.3,46.9,47.5c0.2,0,0.4,0,0.6,0c26.1,0.2,47.3-20.9,47.5-46.9C-809.5-933.6-809.5-933.8-809.5-934z M-900.2-934
		c0-23.8,19.3-43.2,43.2-43.2c23.8,0,43.2,19.3,43.2,43.2s-19.3,43.2-43.2,43.2C-880.8-890.9-900.1-910.2-900.2-934z"/>
</g>
</svg>
